<svg xmlns="http://www.w3.org/2000/svg" version="1.1" viewBox = "0 0 600 700">
<defs> <marker id="t" markerWidth="20" markerHeight="20" orient="auto" refY="20"> <path d="M0,0 L20,10 0,20" /> </marker></defs><polygon class="outline" points="50,50,50,550,200,550,200,650,400,650,400,550,550,550,550,50"/>
<g><circle cx="100" cy="100" r="5"/><text x="105" y="100">Alpha</text><circle cx="200" cy="100" r="5"/><text x="205" y="100">Bravo</text><circle cx="300" cy="100" r="5"/><text x="305" y="100">Charlie</text><circle cx="400" cy="100" r="5"/><text x="405" y="100">Delta</text><circle cx="500" cy="100" r="5"/><text x="505" y="100">Echo</text><circle cx="100" cy="200" r="5"/><text x="105" y="200">Foxtrot</text><circle cx="200" cy="200" r="5"/><text x="205" y="200">Golf</text><circle cx="300" cy="200" r="5"/><text x="305" y="200">Hotel</text><circle cx="400" cy="200" r="5"/><text x="405" y="200">India</text><circle cx="500" cy="200" r="5"/><text x="505" y="200">Juliett</text><circle cx="100" cy="300" r="5"/><text x="105" y="300">Kilo</text><circle cx="200" cy="300" r="5"/><text x="205" y="300">Lima</text><circle cx="300" cy="300" r="5"/><text x="305" y="300">Mike</text><circle cx="400" cy="300" r="5"/><text x="405" y="300">November</text><circle cx="500" cy="300" r="5"/><text x="505" y="300">Oscar</text><circle cx="100" cy="400" r="5"/><text x="105" y="400">Papa</text><circle cx="200" cy="400" r="5"/><text x="205" y="400">Quebec</text><circle cx="300" cy="400" r="5"/><text x="305" y="400">Romeo</text><circle cx="400" cy="400" r="5"/><text x="405" y="400">Sierra</text><circle cx="500" cy="400" r="5"/><text x="505" y="400">Tango</text><circle cx="100" cy="500" r="5"/><text x="105" y="500">Uniform</text><circle cx="200" cy="500" r="5"/><text x="205" y="500">Victor</text><circle cx="300" cy="500" r="5"/><text x="305" y="500">Whiskey</text><circle cx="400" cy="500" r="5"/><text x="405" y="500">X-ray</text><circle cx="500" cy="500" r="5"/><text x="505" y="500">Yankee</text><circle cx="300" cy="600" r="5"/><text x="305" y="600">Zulu</text></g><path class="f5634cd6f-c9ae-9091-dd26-22767cf8d3f" id="path-f5634cd6f-c9ae-9091-dd26-22767cf8d3f" d="M202.0 92.0 L302.0 188.0 188.0 192.0 92.0 299.0 209.0 409.0 411.0 411.0 391.0 401.0 397.0 399.0 513.0 303.0 411.0 408.0 285.0 314.0 213.0 301.0 193.0 295.0 202.0 303.0 209.0 290.0 214.0 295.0 185.0 293.0 204.0 312.0 188.0 292.0 201.0 305.0 " />
<circle xmlns="http://www.w3.org/2000/svg" cx="" cy="" r="5" class="f5634cd6f-c9ae-9091-dd26-22767cf8d3f dot">
        <animateMotion dur="15s" repeatCount="indefinite" rotate = "auto">
           <mpath xmlns:xlink="http://www.w3.org/1999/xlink" xlink:href="#path-f5634cd6f-c9ae-9091-dd26-22767cf8d3f"/>
        </animateMotion>
    </circle><text x="M202.0 92.0 L302.0 188.0 188.0 192.0 92.0 299.0 209.0 409.0 411.0 411.0 391.0 401.0 397.0 399.0 513.0 303.0 411.0 408.0 285.0 314.0 213.0 301.0 193.0 295.0 202.0 303.0 209.0 290.0 214.0 295.0 185.0 293.0 204.0 312.0 188.0 292.0 201.0 305.0 " y="12.5" class="f5634cd6f-c9ae-9091-dd26-22767cf8d3f"></text><path class="e222528ef-bdbc-9639-d1d3-3b1f6e3206a" id="path-e222528ef-bdbc-9639-d1d3-3b1f6e3206a" d="M505.0 507.0 L300.0 506.0 314.0 514.0 301.0 503.0 304.0 486.0 290.0 491.0 304.0 500.0 97.0 503.0 93.0 494.0 112.0 486.0 93.0 511.0 85.0 490.0 107.0 500.0 110.0 497.0 91.0 504.0 104.0 491.0 94.0 488.0 91.0 507.0 88.0 500.0 94.0 513.0 " />
<circle xmlns="http://www.w3.org/2000/svg" cx="" cy="" r="5" class="e222528ef-bdbc-9639-d1d3-3b1f6e3206a dot">
        <animateMotion dur="15s" repeatCount="indefinite" rotate = "auto">
           <mpath xmlns:xlink="http://www.w3.org/1999/xlink" xlink:href="#path-e222528ef-bdbc-9639-d1d3-3b1f6e3206a"/>
        </animateMotion>
    </circle><text x="M505.0 507.0 L300.0 506.0 314.0 514.0 301.0 503.0 304.0 486.0 290.0 491.0 304.0 500.0 97.0 503.0 93.0 494.0 112.0 486.0 93.0 511.0 85.0 490.0 107.0 500.0 110.0 497.0 91.0 504.0 104.0 491.0 94.0 488.0 91.0 507.0 88.0 500.0 94.0 513.0 " y="12.5" class="e222528ef-bdbc-9639-d1d3-3b1f6e3206a"></text><path class="d76ee02ce-50e8-17dc-6ef8-641b13402d8" id="path-d76ee02ce-50e8-17dc-6ef8-641b13402d8" d="M385.0 209.0 L501.0 208.0 388.0 109.0 398.0 302.0 386.0 285.0 401.0 293.0 394.0 300.0 385.0 310.0 388.0 291.0 392.0 294.0 395.0 302.0 387.0 314.0 395.0 285.0 412.0 299.0 405.0 289.0 403.0 87.0 186.0 105.0 197.0 186.0 294.0 213.0 314.0 302.0 " />
<circle xmlns="http://www.w3.org/2000/svg" cx="" cy="" r="5" class="d76ee02ce-50e8-17dc-6ef8-641b13402d8 dot">
        <animateMotion dur="15s" repeatCount="indefinite" rotate = "auto">
           <mpath xmlns:xlink="http://www.w3.org/1999/xlink" xlink:href="#path-d76ee02ce-50e8-17dc-6ef8-641b13402d8"/>
        </animateMotion>
    </circle><text x="M385.0 209.0 L501.0 208.0 388.0 109.0 398.0 302.0 386.0 285.0 401.0 293.0 394.0 300.0 385.0 310.0 388.0 291.0 392.0 294.0 395.0 302.0 387.0 314.0 395.0 285.0 412.0 299.0 405.0 289.0 403.0 87.0 186.0 105.0 197.0 186.0 294.0 213.0 314.0 302.0 " y="12.5" class="d76ee02ce-50e8-17dc-6ef8-641b13402d8"></text><path class="aea191c58-b140-1409-92e4-361c9f179c8" id="path-aea191c58-b140-1409-92e4-361c9f179c8" d="M304.0 593.0 L312.0 600.0 291.0 602.0 286.0 589.0 307.0 601.0 314.0 600.0 312.0 593.0 302.0 586.0 308.0 601.0 309.0 592.0 296.0 601.0 299.0 588.0 314.0 606.0 285.0 603.0 288.0 614.0 305.0 596.0 286.0 607.0 290.0 501.0 309.0 499.0 285.0 504.0 " />
<circle xmlns="http://www.w3.org/2000/svg" cx="" cy="" r="5" class="aea191c58-b140-1409-92e4-361c9f179c8 dot">
        <animateMotion dur="15s" repeatCount="indefinite" rotate = "auto">
           <mpath xmlns:xlink="http://www.w3.org/1999/xlink" xlink:href="#path-aea191c58-b140-1409-92e4-361c9f179c8"/>
        </animateMotion>
    </circle><text x="M304.0 593.0 L312.0 600.0 291.0 602.0 286.0 589.0 307.0 601.0 314.0 600.0 312.0 593.0 302.0 586.0 308.0 601.0 309.0 592.0 296.0 601.0 299.0 588.0 314.0 606.0 285.0 603.0 288.0 614.0 305.0 596.0 286.0 607.0 290.0 501.0 309.0 499.0 285.0 504.0 " y="12.5" class="aea191c58-b140-1409-92e4-361c9f179c8"></text><path class="cd2fa932b-1c02-895c-5f61-34f5c44f279" id="path-cd2fa932b-1c02-895c-5f61-34f5c44f279" d="M501.0 314.0 L409.0 198.0 402.0 408.0 404.0 396.0 400.0 392.0 412.0 393.0 408.0 408.0 203.0 394.0 109.0 288.0 107.0 405.0 113.0 201.0 97.0 104.0 192.0 207.0 201.0 195.0 210.0 213.0 186.0 199.0 200.0 202.0 186.0 188.0 214.0 202.0 203.0 312.0 " />
<circle xmlns="http://www.w3.org/2000/svg" cx="" cy="" r="5" class="cd2fa932b-1c02-895c-5f61-34f5c44f279 dot">
        <animateMotion dur="15s" repeatCount="indefinite" rotate = "auto">
           <mpath xmlns:xlink="http://www.w3.org/1999/xlink" xlink:href="#path-cd2fa932b-1c02-895c-5f61-34f5c44f279"/>
        </animateMotion>
    </circle><text x="M501.0 314.0 L409.0 198.0 402.0 408.0 404.0 396.0 400.0 392.0 412.0 393.0 408.0 408.0 203.0 394.0 109.0 288.0 107.0 405.0 113.0 201.0 97.0 104.0 192.0 207.0 201.0 195.0 210.0 213.0 186.0 199.0 200.0 202.0 186.0 188.0 214.0 202.0 203.0 312.0 " y="12.5" class="cd2fa932b-1c02-895c-5f61-34f5c44f279"></text><path class="ebf6f25e9-d611-6b6c-53c8-070186dac25" id="path-ebf6f25e9-d611-6b6c-53c8-070186dac25" d="M101.0 100.0 L95.0 307.0 292.0 291.0 212.0 385.0 113.0 500.0 198.0 512.0 412.0 513.0 493.0 400.0 495.0 404.0 486.0 390.0 491.0 391.0 497.0 385.0 494.0 393.0 494.0 391.0 487.0 398.0 309.0 396.0 289.0 599.0 404.0 512.0 405.0 312.0 393.0 92.0 " />
<circle xmlns="http://www.w3.org/2000/svg" cx="" cy="" r="5" class="ebf6f25e9-d611-6b6c-53c8-070186dac25 dot">
        <animateMotion dur="15s" repeatCount="indefinite" rotate = "auto">
           <mpath xmlns:xlink="http://www.w3.org/1999/xlink" xlink:href="#path-ebf6f25e9-d611-6b6c-53c8-070186dac25"/>
        </animateMotion>
    </circle><text x="M101.0 100.0 L95.0 307.0 292.0 291.0 212.0 385.0 113.0 500.0 198.0 512.0 412.0 513.0 493.0 400.0 495.0 404.0 486.0 390.0 491.0 391.0 497.0 385.0 494.0 393.0 494.0 391.0 487.0 398.0 309.0 396.0 289.0 599.0 404.0 512.0 405.0 312.0 393.0 92.0 " y="12.5" class="ebf6f25e9-d611-6b6c-53c8-070186dac25"></text><path class="c3686dcbd-60fc-e74e-62e2-3960fbb093b" id="path-c3686dcbd-60fc-e74e-62e2-3960fbb093b" d="M113.0 403.0 L112.0 485.0 100.0 409.0 189.0 509.0 309.0 594.0 296.0 402.0 211.0 386.0 192.0 211.0 206.0 406.0 214.0 385.0 203.0 390.0 198.0 412.0 198.0 400.0 194.0 404.0 206.0 385.0 192.0 386.0 87.0 405.0 107.0 188.0 107.0 406.0 187.0 508.0 " />
<circle xmlns="http://www.w3.org/2000/svg" cx="" cy="" r="5" class="c3686dcbd-60fc-e74e-62e2-3960fbb093b dot">
        <animateMotion dur="15s" repeatCount="indefinite" rotate = "auto">
           <mpath xmlns:xlink="http://www.w3.org/1999/xlink" xlink:href="#path-c3686dcbd-60fc-e74e-62e2-3960fbb093b"/>
        </animateMotion>
    </circle><text x="M113.0 403.0 L112.0 485.0 100.0 409.0 189.0 509.0 309.0 594.0 296.0 402.0 211.0 386.0 192.0 211.0 206.0 406.0 214.0 385.0 203.0 390.0 198.0 412.0 198.0 400.0 194.0 404.0 206.0 385.0 192.0 386.0 87.0 405.0 107.0 188.0 107.0 406.0 187.0 508.0 " y="12.5" class="c3686dcbd-60fc-e74e-62e2-3960fbb093b"></text><path class="c48dfbf2d-c756-f82e-2a5a-5ca18c72752" id="path-c48dfbf2d-c756-f82e-2a5a-5ca18c72752" d="M293.0 614.0 L408.0 511.0 410.0 501.0 386.0 511.0 408.0 512.0 406.0 490.0 409.0 514.0 414.0 493.0 405.0 313.0 212.0 303.0 206.0 211.0 196.0 197.0 193.0 187.0 199.0 213.0 201.0 186.0 209.0 188.0 195.0 193.0 201.0 197.0 191.0 197.0 207.0 200.0 " />
<circle xmlns="http://www.w3.org/2000/svg" cx="" cy="" r="5" class="c48dfbf2d-c756-f82e-2a5a-5ca18c72752 dot">
        <animateMotion dur="15s" repeatCount="indefinite" rotate = "auto">
           <mpath xmlns:xlink="http://www.w3.org/1999/xlink" xlink:href="#path-c48dfbf2d-c756-f82e-2a5a-5ca18c72752"/>
        </animateMotion>
    </circle><text x="M293.0 614.0 L408.0 511.0 410.0 501.0 386.0 511.0 408.0 512.0 406.0 490.0 409.0 514.0 414.0 493.0 405.0 313.0 212.0 303.0 206.0 211.0 196.0 197.0 193.0 187.0 199.0 213.0 201.0 186.0 209.0 188.0 195.0 193.0 201.0 197.0 191.0 197.0 207.0 200.0 " y="12.5" class="c48dfbf2d-c756-f82e-2a5a-5ca18c72752"></text><path class="f348351a4-e88d-6068-40f2-babc6b202d2" id="path-f348351a4-e88d-6068-40f2-babc6b202d2" d="M390.0 205.0 L390.0 211.0 401.0 213.0 406.0 199.0 389.0 201.0 399.0 201.0 400.0 192.0 396.0 211.0 397.0 207.0 386.0 205.0 401.0 188.0 386.0 210.0 389.0 213.0 396.0 187.0 405.0 190.0 412.0 189.0 504.0 102.0 509.0 307.0 498.0 391.0 507.0 508.0 " />
<circle xmlns="http://www.w3.org/2000/svg" cx="" cy="" r="5" class="f348351a4-e88d-6068-40f2-babc6b202d2 dot">
        <animateMotion dur="15s" repeatCount="indefinite" rotate = "auto">
           <mpath xmlns:xlink="http://www.w3.org/1999/xlink" xlink:href="#path-f348351a4-e88d-6068-40f2-babc6b202d2"/>
        </animateMotion>
    </circle><text x="M390.0 205.0 L390.0 211.0 401.0 213.0 406.0 199.0 389.0 201.0 399.0 201.0 400.0 192.0 396.0 211.0 397.0 207.0 386.0 205.0 401.0 188.0 386.0 210.0 389.0 213.0 396.0 187.0 405.0 190.0 412.0 189.0 504.0 102.0 509.0 307.0 498.0 391.0 507.0 508.0 " y="12.5" class="f348351a4-e88d-6068-40f2-babc6b202d2"></text><path class="e6d752dfc-09fb-8f96-f94c-e1c500eb362" id="path-e6d752dfc-09fb-8f96-f94c-e1c500eb362" d="M290.0 303.0 L299.0 287.0 299.0 301.0 297.0 287.0 313.0 305.0 307.0 308.0 297.0 301.0 313.0 307.0 297.0 313.0 309.0 303.0 296.0 305.0 414.0 409.0 307.0 290.0 309.0 491.0 394.0 501.0 385.0 304.0 386.0 286.0 403.0 290.0 393.0 287.0 397.0 296.0 " />
<circle xmlns="http://www.w3.org/2000/svg" cx="" cy="" r="5" class="e6d752dfc-09fb-8f96-f94c-e1c500eb362 dot">
        <animateMotion dur="15s" repeatCount="indefinite" rotate = "auto">
           <mpath xmlns:xlink="http://www.w3.org/1999/xlink" xlink:href="#path-e6d752dfc-09fb-8f96-f94c-e1c500eb362"/>
        </animateMotion>
    </circle><text x="M290.0 303.0 L299.0 287.0 299.0 301.0 297.0 287.0 313.0 305.0 307.0 308.0 297.0 301.0 313.0 307.0 297.0 313.0 309.0 303.0 296.0 305.0 414.0 409.0 307.0 290.0 309.0 491.0 394.0 501.0 385.0 304.0 386.0 286.0 403.0 290.0 393.0 287.0 397.0 296.0 " y="12.5" class="e6d752dfc-09fb-8f96-f94c-e1c500eb362"></text></svg>
